<?xml version="1.0" encoding="UTF-8"?>
<svg version="1.1" xmlns="http://www.w3.org/2000/svg" width="4376" height="934">
<path d="M0 0 C0 184.47 0 368.94 0 559 C-25.74 559 -51.48 559 -78 559 C-78.495 375.355 -78.495 375.355 -79 188 C-105.76996094 214.7815625 -132.53992188 241.563125 -160.12109375 269.15625 C-176.01526723 285.05522489 -191.90947426 300.95416595 -207.80431187 316.85247684 C-217.1225453 326.17275158 -226.44075539 335.49304965 -235.7588936 344.8134196 C-236.8860686 345.94086443 -238.01324433 347.06830853 -239.1404208 348.19575189 C-257.12666757 366.1862695 -275.11129559 384.17840428 -293.09508304 402.17138026 C-311.5700065 420.65572609 -330.04655898 439.13844204 -348.52517825 457.61909324 C-351.1320012 460.22620437 -353.73880541 462.83333421 -356.34559822 465.44047546 C-356.85867963 465.95362429 -357.37176103 466.46677312 -357.90039036 466.99547191 C-366.1770747 475.2733404 -374.4520275 483.55293776 -382.72634248 491.83317451 C-391.03423431 500.14693888 -399.34396804 508.45885846 -407.65549117 516.76899254 C-412.16310713 521.2759647 -416.6698859 525.78376618 -421.17451668 530.29372215 C-425.29086242 534.41489884 -429.40946489 538.53380557 -433.52994729 542.65084618 C-435.02746763 544.14794053 -436.52412622 545.64589741 -438.01987677 547.14475995 C-440.03861015 549.16745206 -442.06033596 551.18710264 -444.08290768 553.20595551 C-444.67549282 553.80116766 -445.26807797 554.39637982 -445.87862024 555.00962871 C-449.8858542 559 -449.8858542 559 -451 559 C-451 376.18 -451 193.36 -451 5 C-443.125 11.75 -443.125 11.75 -439.9527216 14.92423058 C-439.22817156 15.64678956 -438.50362152 16.36934855 -437.75711542 17.11380327 C-436.98375186 17.89007967 -436.2103883 18.66635607 -435.41358948 19.46615601 C-434.57456382 20.30432724 -433.73553817 21.14249847 -432.87108749 22.00606883 C-430.559169 24.31663147 -428.24949296 26.62940808 -425.94077075 28.94316363 C-423.4443937 31.44387811 -420.9451077 33.94168242 -418.44618225 36.43984985 C-414.12245915 40.7630498 -409.80056391 45.08807003 -405.47992134 49.4143486 C-399.23307242 55.66934081 -392.9834486 61.92155446 -386.73315429 68.17310365 C-376.59138466 78.31705935 -366.45184803 88.46324402 -356.3137207 98.61083984 C-346.46821596 108.4655302 -336.62165656 118.31916482 -326.77368164 128.17138672 C-326.16617361 128.77915748 -325.55866557 129.38692823 -324.93274821 130.01311629 C-321.88490934 133.06226023 -318.83704977 136.1113835 -315.78917992 139.16049647 C-290.52291063 164.43712454 -265.26026741 189.71737399 -240 215 C-241.77970629 218.81427377 -244.00292909 221.24446083 -247.00048828 224.22753906 C-247.507966 224.73530884 -248.01544373 225.24307861 -248.53829956 225.76623535 C-250.21093869 227.43748509 -251.89054217 229.10154556 -253.5703125 230.765625 C-254.73374278 231.92532377 -255.89673126 233.08546592 -257.05929565 234.24603271 C-260.115982 237.29509352 -263.17862744 240.33809963 -266.24255371 243.37988281 C-269.36975165 246.48659913 -272.49127507 249.59900545 -275.61328125 252.7109375 C-281.7366488 258.81287417 -287.8663236 264.90842598 -294 271 C-296.96154998 269.66627583 -299.03976794 268.20842075 -301.32830811 265.91220093 C-301.96355785 265.27970617 -302.5988076 264.64721142 -303.25330734 263.99555016 C-303.94154209 263.30011919 -304.62977684 262.60468822 -305.33886719 261.88818359 C-306.08276325 261.1445286 -306.82665932 260.4008736 -307.59309769 259.63468361 C-309.99905255 257.22723641 -312.3980613 254.81299814 -314.796875 252.3984375 C-316.28161034 250.91076149 -317.76679638 249.42353515 -319.25244141 247.93676758 C-324.75709474 242.42162973 -330.25301805 236.89778402 -335.75 231.375 C-354.18875 212.874375 -354.18875 212.874375 -373 194 C-373 252.41 -373 310.82 -373 371 C-361.77178223 359.76130859 -350.54356445 348.52261719 -338.97509766 336.94335938 C-331.47898114 329.44054406 -323.98284415 321.93774926 -316.48648071 314.43518066 C-316.01031433 313.95861961 -315.53414795 313.48205856 -315.04355228 312.99105627 C-299.02185896 296.95611923 -282.99879568 280.92255187 -266.97470093 264.89001465 C-266.19059616 264.10549571 -266.19059616 264.10549571 -265.39065089 263.3051279 C-254.03149473 251.9399866 -242.67211618 240.5750676 -231.31250838 229.21037772 C-225.7421517 223.63752626 -220.17184418 218.06462565 -214.6015625 212.49169922 C-214.04723738 211.93711258 -213.49291226 211.38252594 -212.92178941 210.81113365 C-194.93887124 192.81968542 -176.95920522 174.8249913 -158.98121418 156.82861974 C-140.51393926 138.34249827 -122.04340558 119.85963903 -103.56873674 101.38090676 C-100.96221825 98.77381192 -98.35573723 96.16667963 -95.74927902 93.55952454 C-95.23626504 93.04637571 -94.72325106 92.53322688 -94.1946912 92.00452809 C-85.92055526 83.72802426 -77.64988477 75.44806568 -69.38048956 67.16682549 C-61.07664589 58.85123417 -52.76911845 50.53933821 -44.45801021 42.23100746 C-39.95101857 37.72530307 -35.44570682 33.21795031 -30.9446888 28.70627785 C-26.83103694 24.58295908 -22.7128782 20.46420018 -18.59095161 16.34915382 C-17.09388217 14.85293587 -15.59853308 13.3549944 -14.10500641 11.85524005 C-12.08792611 9.83023324 -10.06489797 7.81137022 -8.04014015 5.79404449 C-7.45018202 5.19883234 -6.86022389 4.60362018 -6.25238824 3.99037129 C-2.2282916 0 -2.2282916 0 0 0 Z " fill="#D621A2" transform="translate(565,170)"/>
<path d="M0 0 C32.67 0 65.34 0 99 0 C104.62095832 11.24191663 104.62095832 11.24191663 106.5859375 16.23828125 C107.25749878 17.93319702 107.25749878 17.93319702 107.94262695 19.66235352 C108.65165161 21.46917603 108.65165161 21.46917603 109.375 23.3125 C110.43667501 25.99563614 111.50173645 28.67742604 112.56640625 31.359375 C112.84338852 32.05833389 113.12037079 32.75729279 113.40574646 33.47743225 C116.66328201 41.69056365 119.98766905 49.87643663 123.3125 58.0625 C123.94844433 59.62929717 124.58434902 61.19611042 125.22021484 62.76293945 C126.50540768 65.92947937 127.79093458 69.09588339 129.07666016 72.26220703 C131.90915565 79.23848874 134.73719745 86.2165758 137.56552124 93.19454956 C139.12682657 97.04644242 140.68842848 100.89821505 142.25 104.75 C142.87500142 106.29166609 143.50000142 107.83333276 144.125 109.375 C144.434375 110.138125 144.74375 110.90125 145.0625 111.6875 C147.87500004 118.6250001 147.87500004 118.6250001 148.81253052 120.93757629 C149.43742785 122.47898903 150.06232612 124.02040138 150.68722534 125.56181335 C152.25130394 129.41986201 153.81536604 133.27791736 155.37939453 137.13598633 C158.17296803 144.02699154 160.9666252 150.91796272 163.76097107 157.80865479 C164.6829258 160.08220444 165.6047688 162.35579938 166.52661133 164.62939453 C167.7524803 167.65272214 168.97894573 170.67580684 170.20581055 173.69873047 C173.3014471 181.32847913 176.3891725 188.96130625 179.46209717 196.60023499 C181.02844728 200.49339934 182.59721409 204.38558803 184.16607666 208.27774048 C184.92606257 210.16524315 185.68482535 212.05323881 186.44232178 213.94174194 C187.49628331 216.56916134 188.55435057 219.19489268 189.61328125 221.8203125 C189.92716293 222.60599106 190.24104462 223.39166962 190.56443787 224.20115662 C191.84339558 227.36239471 193.10168587 230.1525288 195 233 C204.6733761 209.00270162 214.33907452 185.00231339 224 161 C224.42152092 159.95274246 224.84304184 158.90548492 225.27733612 157.82649231 C230.78925127 144.13188146 236.29934557 130.43653952 241.80671024 116.740098 C244.10018784 111.03637702 246.39405477 105.33281362 248.68911743 99.62973022 C251.31511239 93.1040302 253.93942151 86.5776541 256.5625 80.05078125 C256.98686026 78.99507872 257.41122051 77.93937618 257.84844017 76.85168266 C262.91629888 64.2393298 267.95279743 51.61492845 272.94921875 38.97412109 C273.19423693 38.35445052 273.4392551 37.73477995 273.69169807 37.09633148 C276.30394335 30.48972874 278.91224168 23.88160094 281.51391602 17.27082825 C282.35818281 15.13129627 283.20249968 12.99178407 284.046875 10.85229492 C284.43433395 9.86436888 284.82179291 8.87644283 285.22099304 7.85857964 C285.57442276 6.96428812 285.92785248 6.0699966 286.29199219 5.14860535 C286.59949402 4.36707187 286.90699585 3.58553839 287.22381592 2.78032207 C288 1 288 1 289 0 C321.67 0 354.34 0 388 0 C388 112.86 388 225.72 388 342 C359.95 342 331.9 342 303 342 C302.505 244.98 302.505 244.98 302 146 C296.72 160.19 291.44 174.38 286 189 C282.88351117 197.36279568 279.76695917 205.7255594 276.6479187 214.08740234 C275.30034928 217.70013286 273.95300654 221.31294788 272.60571289 224.92578125 C268.76375706 235.22801777 264.92132706 245.53007742 261.07861328 255.83203125 C258.19803336 263.55460962 255.31764402 271.27725905 252.4375 279 C251.97710327 280.23448883 251.51670654 281.46897766 251.0423584 282.74087524 C243.67830198 302.48778174 236.33141293 322.24094809 229 342 C206.23 342 183.46 342 160 342 C154.37436448 328.49847476 154.37436448 328.49847476 152.36645508 323.13916016 C151.9091954 321.92182693 151.45193573 320.70449371 150.9808197 319.45027161 C150.4936617 318.14655835 150.00656759 316.84282121 149.51953125 315.5390625 C148.99284812 314.13398576 148.4659927 312.72897359 147.9389801 311.32402039 C146.52251885 307.54598906 145.1089558 303.76687957 143.69603729 299.98752213 C142.50405395 296.80023502 141.31033345 293.61359956 140.11669922 290.42693043 C133.73229947 273.3807418 127.37070702 256.32612281 121.03515625 239.26171875 C120.75323992 238.50243576 120.47132359 237.74315277 120.18086433 236.96086121 C117.2403933 229.04051844 114.30299244 221.11904975 111.37036133 213.19580078 C102.68445449 189.75605384 93.83478029 166.38618312 85 143 C84.67 208.67 84.34 274.34 84 342 C56.28 342 28.56 342 0 342 C0 229.14 0 116.28 0 0 Z " fill="#FFFFFF" transform="translate(1687,304)"/>
<path d="M0 0 C146.9381948 0 146.9381948 0 164.4375 2.6875 C165.57364746 2.86047607 166.70979492 3.03345215 167.88037109 3.21166992 C210.21281591 10.03957932 250.69989316 31.70948052 276.125 66.8125 C295.32208173 94.03657308 307.02245119 126.66015091 307.203125 160.14453125 C307.20882507 160.99440109 307.21452515 161.84427094 307.22039795 162.71989441 C307.22978568 164.51238792 307.23635692 166.30489821 307.24023438 168.09741211 C307.24983902 170.76774483 307.28088013 173.43727233 307.3125 176.10742188 C307.56264797 216.72516938 294.09405556 257.91647591 266.0078125 287.81640625 C263.93597301 290.01608181 263.93597301 290.01608181 261.95703125 292.578125 C259.02095865 296.21158809 255.59727701 299.03685836 252 302 C251.071875 302.76570313 250.14375 303.53140625 249.1875 304.3203125 C179.39537838 359.97952949 82.01950609 342 0 342 C0 229.14 0 116.28 0 0 Z M84 72 C84 137.34 84 202.68 84 270 C144.98921985 271.70130774 144.98921985 271.70130774 196.25 243.8046875 C216.23967839 223.41748709 222.43298081 196.66325041 222.23022461 168.78051758 C221.77253335 144.48308133 215.83625328 121.88020464 200 103 C199.236875 101.989375 198.47375 100.97875 197.6875 99.9375 C179.51329462 80.07267086 153.88538944 73.9911838 128 72 C113.48 72 98.96 72 84 72 Z " fill="#FFFFFF" transform="translate(731,304)"/>
<path d="M0 0 C2.04701376 0.00315485 4.09256814 -0.02038471 6.1394043 -0.0456543 C29.97963858 -0.16038422 52.07672857 7.76977679 70.24682617 23.31567383 C71.27807617 24.09942383 72.30932617 24.88317383 73.37182617 25.69067383 C77.4736258 29.43579523 80.77705739 33.97846285 84.24682617 38.31567383 C84.57682617 26.76567383 84.90682617 15.21567383 85.24682617 3.31567383 C112.96682617 3.31567383 140.68682617 3.31567383 169.24682617 3.31567383 C169.24682617 93.07567383 169.24682617 182.83567383 169.24682617 275.31567383 C141.52682617 275.31567383 113.80682617 275.31567383 85.24682617 275.31567383 C84.91682617 264.09567383 84.58682617 252.87567383 84.24682617 241.31567383 C82.49370117 243.27504883 80.74057617 245.23442383 78.93432617 247.25317383 C61.87794821 265.88362845 39.48721361 278.13665358 13.90795898 279.49267578 C-22.36983615 280.13555396 -51.73300625 273.01884572 -78.89770508 247.17114258 C-105.26571646 221.29714546 -117.72477905 182.66853933 -118.07531738 146.40660095 C-118.08285821 144.14696392 -118.07691048 141.88779227 -118.06567383 139.62817383 C-118.06351868 138.8426413 -118.06136353 138.05710876 -118.05914307 137.24777222 C-117.88644554 97.88122224 -106.86456937 60.74160247 -78.75317383 32.31567383 C-78.08930664 31.57961914 -77.42543945 30.84356445 -76.74145508 30.08520508 C-57.68212229 9.37213409 -27.3214043 -0.0875998 0 0 Z M-15.75317383 91.31567383 C-16.31649414 91.85708008 -16.87981445 92.39848633 -17.46020508 92.95629883 C-29.77261979 105.82098544 -33.10144967 124.94421951 -32.90551758 142.07739258 C-31.9672361 162.02188852 -25.58317361 179.57548671 -10.75317383 193.31567383 C3.08129345 203.81817786 16.98709242 207.45189455 34.24682617 206.31567383 C50.10774939 204.01670932 62.20495777 195.78622581 72.37963867 183.80395508 C84.67573767 167.27608174 87.28701432 145.90045699 84.47290039 125.92700195 C82.42356399 113.23764777 77.98838766 101.9448994 69.24682617 92.31567383 C68.71444336 91.70336914 68.18206055 91.09106445 67.63354492 90.46020508 C57.99440834 80.03889512 44.69653041 73.89497513 30.58276367 73.11254883 C12.0484516 72.89320786 -2.5020103 77.89797862 -15.75317383 91.31567383 Z " fill="#FFFFFF" transform="translate(2234.753173828125,370.684326171875)"/>
<path d="M0 0 C0.79466675 -0.00626404 1.5893335 -0.01252808 2.40808105 -0.01898193 C17.53615951 -0.09435287 32.38139843 1.61801644 46.875 6.125 C48.11564209 6.50628052 48.11564209 6.50628052 49.38134766 6.89526367 C67.06887408 12.57410528 83.46287242 22.50176753 96.75 35.4375 C97.99716797 36.59185547 97.99716797 36.59185547 99.26953125 37.76953125 C123.05579414 60.38657691 134.84607068 94.15488565 135.84399414 126.48242188 C135.88332436 129.63477609 135.88660452 132.78493915 135.875 135.9375 C135.87886719 136.98808594 135.88273437 138.03867187 135.88671875 139.12109375 C135.86298151 158.32451849 135.86298151 158.32451849 133.75 160.4375 C131.33411027 160.53517385 128.94684616 160.56746678 126.53050232 160.55775452 C125.38378424 160.55903615 125.38378424 160.55903615 124.21390015 160.56034368 C121.63272982 160.56200079 119.0516234 160.55647337 116.47045898 160.55102539 C114.62797039 160.55074354 112.78548169 160.55090121 110.94299316 160.5514679 C105.92460763 160.55175596 100.90624579 160.54585775 95.88786578 160.53889394 C90.64945262 160.53266193 85.41103898 160.53205672 80.17262268 160.53086853 C70.24555509 160.52775476 60.31849844 160.51954076 50.39143568 160.50951904 C39.09295905 160.49835931 27.7944819 160.49284781 16.49600112 160.48782361 C-6.752672 160.47735818 -30.00133539 160.45975787 -53.25 160.4375 C-52.79192847 163.00558903 -52.32778668 165.57233044 -51.86010742 168.13867188 C-51.66762043 169.22326691 -51.66762043 169.22326691 -51.47124481 170.32977295 C-50.50558102 175.59072355 -49.13462069 180.21961213 -46.5625 184.9375 C-46.21364746 185.60056152 -45.86479492 186.26362305 -45.50537109 186.94677734 C-39.35769426 198.15724686 -29.56924864 205.07933965 -17.453125 208.89453125 C-4.51489211 212.08320921 9.78590873 211.38210541 21.6875 205.0625 C23.05776676 204.21293461 24.41399402 203.33998567 25.75 202.4375 C26.760625 201.756875 27.77125 201.07625 28.8125 200.375 C31.0142787 198.56466276 31.85522629 197.20818353 33.06726074 194.5668335 C37.0922327 186.35048528 37.0922327 186.35048528 41.72155762 184.76023865 C47.83664386 183.70549276 54.04411403 184.06319595 60.21875 184.265625 C62.22508658 184.28802719 64.23148915 184.30509899 66.23791504 184.31707764 C71.50044344 184.36273902 76.75895039 184.48045825 82.01989746 184.61352539 C87.39552402 184.73663599 92.77180538 184.7911624 98.1484375 184.8515625 C108.68405168 184.97997849 119.21669055 185.18457669 129.75 185.4375 C129.12514295 187.67452591 128.49647584 189.91048779 127.86621094 192.14599609 C127.51653259 193.39126068 127.16685425 194.63652527 126.80657959 195.91952515 C125.53231803 200.16229131 123.94748779 204.09233567 122 208.0625 C121.65638428 208.77486816 121.31276855 209.48723633 120.95874023 210.22119141 C106.59675779 239.28531711 81.16512809 261.29065568 50.7175293 272.11132812 C37.41321729 276.56746775 23.80078954 279.55073393 9.7265625 279.640625 C8.6176918 279.65121445 8.6176918 279.65121445 7.48641968 279.66201782 C-23.17473851 279.88847606 -23.17473851 279.88847606 -36.25 276.4375 C-37.42973389 276.13948486 -37.42973389 276.13948486 -38.63330078 275.83544922 C-71.49926287 267.35698364 -99.67125781 248.41917807 -117.60009766 219.24023438 C-127.38157358 202.59551291 -133.58416141 184.54951207 -136.25 165.4375 C-136.3428125 164.81133789 -136.435625 164.18517578 -136.53125 163.54003906 C-137.53223338 155.95758992 -137.49365755 148.32262777 -137.5 140.6875 C-137.50067474 139.95651093 -137.50134949 139.22552185 -137.50204468 138.47238159 C-137.44868603 101.96160267 -127.61808669 65.89421892 -101.25 39.4375 C-100.42113281 38.6021875 -99.59226562 37.766875 -98.73828125 36.90625 C-82.57149213 20.86635875 -63.11930761 10.4617252 -41.25 4.4375 C-40.47849609 4.22432129 -39.70699219 4.01114258 -38.91210938 3.79150391 C-26.05615099 0.44481449 -13.20449834 0.04866206 0 0 Z M-41.25 84.4375 C-47.34553898 92.09694494 -53.25 103.36199343 -53.25 113.4375 C-19.26 113.4375 14.73 113.4375 49.75 113.4375 C48.51078011 98.56686136 45.80692133 89.55494435 34.75 79.4375 C12.54324952 61.67209961 -21.79482924 62.92060594 -41.25 84.4375 Z " fill="#FFFFFF" transform="translate(3052.25,370.5625)"/>
<path d="M0 0 C2.43966984 0.00314734 4.87810692 -0.02034756 7.31762695 -0.0456543 C43.50740548 -0.1912235 76.93056118 12.80064568 102.77270508 38.31567383 C130.12921166 65.62826948 138.68453041 102.86033237 138.77270508 140.31567383 C138.64904846 147.06253042 138.4143934 153.74892054 136.77270508 160.31567383 C74.73270508 160.31567383 12.69270508 160.31567383 -51.22729492 160.31567383 C-47.59822685 176.97708833 -47.59822685 176.97708833 -40.22729492 191.31567383 C-39.78901367 191.96407227 -39.35073242 192.6124707 -38.89916992 193.28051758 C-31.9564189 202.3978659 -20.29977312 207.70761044 -9.28588867 209.90161133 C4.03723205 211.70525219 17.37176479 209.71763337 28.77270508 202.31567383 C35.07331267 197.25525613 37.68309885 192.67696503 41.77270508 185.31567383 C71.47270508 185.31567383 101.17270508 185.31567383 131.77270508 185.31567383 C130.4303435 192.02748174 129.29696283 197.24861594 126.52270508 203.25317383 C126.21187988 203.93992187 125.90105469 204.62666992 125.58081055 205.33422852 C111.11086413 236.90367772 86.27615734 259.60817185 53.91333008 271.96801758 C40.70564129 276.47660052 26.75190741 279.42928142 12.78442383 279.51879883 C12.04772964 279.52581314 11.31103546 279.53282745 10.55201721 279.54005432 C8.18801693 279.5574576 5.82426706 279.5639062 3.46020508 279.56567383 C2.6531311 279.56634857 1.84605713 279.56702332 1.01452637 279.56771851 C-36.09694938 279.51837059 -70.5723866 267.8600557 -97.41479492 241.56567383 C-120.95795378 217.76128266 -134.24157021 184.09552807 -134.43041992 150.67114258 C-134.43612 149.8618782 -134.44182007 149.05261383 -134.44769287 148.21882629 C-134.45708766 146.5103178 -134.46365471 144.80179165 -134.4675293 143.09326172 C-134.47712624 140.54791179 -134.50815657 138.00340934 -134.53979492 135.45825195 C-134.78036221 98.34906109 -122.06184243 63.23568321 -96.22729492 36.26098633 C-80.36462658 20.32468491 -60.13383871 10.35444002 -38.60229492 4.56567383 C-37.86325928 4.36683594 -37.12422363 4.16799805 -36.36279297 3.96313477 C-24.2602304 0.8830108 -12.43267952 -0.03337134 0 0 Z M-41.00854492 87.36645508 C-46.21151439 94.41435505 -50.22729492 104.53409197 -50.22729492 113.31567383 C-16.23729492 113.31567383 17.75270508 113.31567383 52.77270508 113.31567383 C50.96822723 100.68432891 48.84839606 88.61760663 38.81958008 79.83129883 C13.45703359 61.05139799 -19.88206162 63.04320127 -41.00854492 87.36645508 Z " fill="#FFFFFF" transform="translate(1202.227294921875,370.684326171875)"/>
<path d="M0 0 C2.11731336 0.00314393 4.23320149 -0.02033024 6.3503418 -0.0456543 C34.17994162 -0.17684412 57.69087766 9.81823551 77.94995117 28.87817383 C90.38786102 41.66754738 97.90237502 57.44588523 102.76245117 74.44067383 C102.95750244 75.11976807 103.15255371 75.7988623 103.35351562 76.49853516 C106.77106993 89.31097188 107.23743163 101.99770072 107.17700195 115.15307617 C107.17643644 116.89896132 107.17675712 118.64484694 107.17788696 120.39073181 C107.17845602 125.0860767 107.1667749 129.78131743 107.15273905 134.47663832 C107.14015638 139.39999824 107.13905529 144.32336109 107.13668823 149.24673462 C107.13049546 158.55006578 107.11411474 167.8533494 107.09398925 177.15665972 C107.06735993 189.74219618 107.05663979 202.32774581 107.04498482 214.91330338 C107.02623235 234.71412906 106.98637205 254.51485449 106.94995117 274.31567383 C79.55995117 274.31567383 52.16995117 274.31567383 23.94995117 274.31567383 C23.91256836 263.38442383 23.87518555 252.45317383 23.83666992 241.19067383 C23.80637665 234.24534889 23.77533986 227.3000403 23.7409668 220.35473633 C23.68660427 209.34270754 23.6351862 198.33072408 23.60351562 187.31860352 C23.58042992 179.29638531 23.54691547 171.27428742 23.50124961 163.25216484 C23.47745888 159.01060115 23.458638 154.76915557 23.45233727 150.52752686 C23.44622158 146.52195289 23.42599313 142.51668056 23.39567566 138.51121902 C23.3869979 137.05375908 23.38315108 135.59625955 23.38494301 134.13877487 C23.40103168 114.98694116 20.65997687 97.64593394 7.10620117 83.37426758 C-3.25050295 73.54813231 -16.17049361 70.93587151 -30.0144043 71.01513672 C-42.99246733 71.35634257 -55.8327428 75.88888357 -65.05004883 85.31567383 C-75.85638366 99.97801361 -78.34432498 114.12161985 -78.36889648 131.95483398 C-78.3782107 133.51294465 -78.38838156 135.0710504 -78.39933777 136.62915039 C-78.42648359 140.83089317 -78.44174109 145.03260272 -78.4547658 149.23440981 C-78.47046429 153.63599715 -78.49723287 158.03751729 -78.52279663 162.4390564 C-78.569466 170.76145027 -78.6062672 179.08385695 -78.6394695 187.40631425 C-78.68494635 198.66131755 -78.74577569 209.91623738 -78.80571747 221.17117119 C-78.89966089 238.88596343 -78.97318585 256.60078017 -79.05004883 274.31567383 C-106.77004883 274.31567383 -134.49004883 274.31567383 -163.05004883 274.31567383 C-163.05004883 184.55567383 -163.05004883 94.79567383 -163.05004883 2.31567383 C-135.33004883 2.31567383 -107.61004883 2.31567383 -79.05004883 2.31567383 C-78.72004883 13.20567383 -78.39004883 24.09567383 -78.05004883 35.31567383 C-75.08004883 32.01567383 -72.11004883 28.71567383 -69.05004883 25.31567383 C-57.03620123 13.56375605 -41.29574441 6.14100741 -25.05004883 2.31567383 C-23.88493774 2.03856567 -23.88493774 2.03856567 -22.69628906 1.75585938 C-15.14589717 0.16671191 -7.68015532 -0.02372317 0 0 Z " fill="#FFFFFF" transform="translate(3848.050048828125,371.684326171875)"/>
<path d="M0 0 C0.79439484 -0.0061734 1.58878967 -0.0123468 2.40725708 -0.01870728 C17.53596988 -0.09427371 32.38066641 1.61838496 46.875 6.125 C47.70064453 6.37846191 48.52628906 6.63192383 49.37695312 6.89306641 C67.73433515 12.78254982 82.95868962 23.15697889 96.75 36.4375 C97.82894531 37.40429688 97.82894531 37.40429688 98.9296875 38.390625 C116.10077584 54.25146965 127.50105276 80.69486933 130.75 103.4375 C101.05 103.4375 71.35 103.4375 40.75 103.4375 C37.285 96.5075 37.285 96.5075 33.75 89.4375 C26.33798483 79.59973441 17.99189106 74.9527694 5.8671875 72.96484375 C-6.64595245 71.54363856 -18.05062753 73.90901519 -28.375 81.1875 C-42.2113657 92.25110194 -47.76177312 108.69615304 -49.83984375 125.8671875 C-52.20436839 149.47718003 -49.38932846 173.93023262 -34.8046875 193.36328125 C-28.90553399 200.04800043 -18.12705915 205.8620969 -9.13452148 206.61450195 C5.79210255 207.15382238 5.79210255 207.15382238 19.75 202.4375 C20.94302734 201.80134766 20.94302734 201.80134766 22.16015625 201.15234375 C32.09234828 195.19966105 35.95334398 186.99014324 40.75 176.4375 C70.45 176.4375 100.15 176.4375 130.75 176.4375 C129.44179466 183.63262936 128.22137573 189.85607441 125.6875 196.5625 C125.38368408 197.37090332 125.07986816 198.17930664 124.7668457 199.01220703 C119.38420026 212.90439085 112.29729003 225.02848842 102.75 236.4375 C102.1209375 237.20707031 101.491875 237.97664062 100.84375 238.76953125 C81.66048813 261.57145388 50.42605553 276.59269504 20.90234375 279.24267578 C2.12502794 280.40316974 -17.94976932 281.26751109 -36.25 276.4375 C-37.42973389 276.13948486 -37.42973389 276.13948486 -38.63330078 275.83544922 C-70.40718931 267.63870696 -98.85040891 249.46472699 -116.0625 221 C-117.50932255 218.50514621 -118.89472988 215.98312023 -120.25 213.4375 C-120.56807617 212.84388672 -120.88615234 212.25027344 -121.21386719 211.63867188 C-138.09512223 179.49902016 -141.75529437 136.62969629 -133.25 101.4375 C-133.05664062 100.63183594 -132.86328125 99.82617188 -132.6640625 98.99609375 C-124.32355593 65.68555207 -104.83591545 36.58225947 -75.28417969 18.61474609 C-64.64385425 12.45684292 -53.12528677 7.59510687 -41.25 4.4375 C-40.52973633 4.24140137 -39.80947266 4.04530273 -39.06738281 3.84326172 C-26.14461482 0.50192023 -13.26936651 0.0436103 0 0 Z " fill="#FFFFFF" transform="translate(4132.25,370.5625)"/>
<path d="M0 0 C2.51208474 0.00314767 5.02297287 -0.0203457 7.53491211 -0.0456543 C36.46554461 -0.15877868 65.74593552 7.08931595 87.34545898 27.31567383 C88.03381836 27.92540039 88.72217773 28.53512695 89.43139648 29.16333008 C107.60210431 46.07717076 115.92617001 69.12278407 118.34545898 93.31567383 C92.60545898 93.31567383 66.86545898 93.31567383 40.34545898 93.31567383 C38.36545898 87.37567383 38.36545898 87.37567383 36.34545898 81.31567383 C30.3993189 72.03969529 23.60066183 67.1804411 12.90795898 64.44067383 C1.49606201 62.19571049 -9.71307805 62.59703295 -20.15454102 68.19067383 C-24.22444125 71.65008902 -27.2463993 74.86319639 -27.89282227 80.33129883 C-28.07435441 85.79637188 -27.42691796 90.11120445 -23.65454102 94.31567383 C-18.1137519 98.73962094 -12.31470446 101.57383034 -5.59204102 103.69067383 C-4.70484375 103.97974609 -3.81764648 104.26881836 -2.90356445 104.56665039 C5.16818208 107.11375907 13.37165837 109.08534776 21.59545898 111.06567383 C33.22098806 113.86739994 44.61751992 117.11862469 55.97045898 120.87817383 C56.64516235 121.09783813 57.31986572 121.31750244 58.01501465 121.54382324 C79.14844523 128.45962992 100.10079487 139.66221731 111.14233398 159.93676758 C111.73788086 161.11432617 111.73788086 161.11432617 112.34545898 162.31567383 C112.72186523 163.00790039 113.09827148 163.70012695 113.48608398 164.41333008 C121.57276633 180.55652058 121.90175466 202.50616398 116.66967773 219.60083008 C112.94631231 230.04602336 107.81294595 239.04491137 100.34545898 247.31567383 C99.49854492 248.26700195 99.49854492 248.26700195 98.63452148 249.23754883 C81.00516269 267.94287787 51.52925937 278.09413687 26.29827881 279.42353821 C24.17165878 279.4788572 22.04697679 279.50598245 19.91967773 279.51879883 C19.13859146 279.52581314 18.35750519 279.53282745 17.55274963 279.54005432 C15.04609349 279.55746501 12.53967337 279.56390634 10.03295898 279.56567383 C8.75032166 279.56668594 8.75032166 279.56668594 7.44177246 279.56771851 C-4.83257028 279.55229848 -16.67848136 279.24835076 -28.65454102 276.31567383 C-29.38366699 276.14938477 -30.11279297 275.9830957 -30.86401367 275.81176758 C-53.37162605 270.60323504 -73.03408049 260.41769797 -89.65454102 244.31567383 C-90.26426758 243.77942383 -90.87399414 243.24317383 -91.50219727 242.69067383 C-104.10649366 231.2061213 -113.22221625 211.97709847 -115.65454102 195.31567383 C-115.65454102 192.34567383 -115.65454102 189.37567383 -115.65454102 186.31567383 C-88.26454102 186.31567383 -60.87454102 186.31567383 -32.65454102 186.31567383 C-31.66454102 189.61567383 -30.67454102 192.91567383 -29.65454102 196.31567383 C-25.72281934 204.77928654 -19.11221429 209.83290994 -10.75219727 213.63598633 C0.37174051 217.64789831 14.11832235 218.30053858 25.36108398 214.24926758 C28.26607747 212.8825482 30.74823009 211.19866478 33.34545898 209.31567383 C34.00545898 209.31567383 34.66545898 209.31567383 35.34545898 209.31567383 C36.0316593 207.99228751 36.69332359 206.65617435 37.34545898 205.31567383 C37.71670898 204.57317383 38.08795898 203.83067383 38.47045898 203.06567383 C40.15686413 197.76554338 40.00584185 193.19455842 37.84545898 188.12817383 C33.56278864 180.70989091 25.03133119 178.14450889 17.28295898 175.62817383 C16.27491211 175.29495117 15.26686523 174.96172852 14.22827148 174.6184082 C4.21307802 171.41142792 -5.95791746 168.87019226 -16.15454102 166.31567383 C-81.79499472 149.86169985 -81.79499472 149.86169985 -97.97143555 123.15209961 C-108.4644605 104.94062438 -110.3996621 83.70487084 -105.24536133 63.35375977 C-98.95982093 41.67124272 -84.03255976 25.34389207 -64.65454102 14.31567383 C-44.71779521 3.61618607 -22.39086569 -0.05839403 0 0 Z " fill="#FFFFFF" transform="translate(2564.654541015625,370.684326171875)"/>
<path d="M0 0 C29.37 0 58.74 0 89 0 C91.0128564 4.69666494 92.7025658 8.95938384 94.1628418 13.79296875 C94.35931022 14.43925735 94.55577864 15.08554596 94.75820065 15.75141907 C95.40900473 17.89564943 96.05409734 20.04155374 96.69921875 22.1875 C97.16715168 23.73318174 97.63545369 25.27875178 98.10409546 26.82421875 C99.10965643 30.14301918 100.1127167 33.46256106 101.11380005 36.78271484 C102.70209451 42.05033604 104.29578636 47.31631429 105.89038086 52.58203125 C107.83977134 59.02055694 109.78789392 65.45946353 111.7344408 71.89884949 C115.37319596 83.93550569 119.02342021 95.9686526 122.6796875 108 C123.08493495 109.33351501 123.08493495 109.33351501 123.49836922 110.69396973 C124.83465648 115.09095134 126.17113829 119.48787379 127.50772095 123.88476562 C129.27062873 129.68434863 131.03250219 135.48424564 132.79415417 141.28421021 C133.94967963 145.08852269 135.10544672 148.89276126 136.26194763 152.69677734 C138.245336 159.22099218 140.22652916 165.74582903 142.19873047 172.2734375 C142.52755722 173.35979492 142.85638397 174.44615234 143.19517517 175.56542969 C143.79182921 177.53699071 144.38711915 179.50896533 144.98072815 181.48144531 C145.23644089 182.32545898 145.49215363 183.16947266 145.75561523 184.0390625 C146.08323097 185.12501709 146.08323097 185.12501709 146.41746521 186.23291016 C146.97799626 188.07657502 146.97799626 188.07657502 148 190 C148.37471436 188.75581299 148.74942871 187.51162598 149.13549805 186.22973633 C158.11840455 156.41034929 167.15193593 126.60677619 176.22947598 96.81608582 C177.34069756 93.16912226 178.45168502 89.52208742 179.5625 85.875 C179.78350435 85.14938873 180.00450871 84.42377747 180.23221016 83.67617798 C183.51099826 72.90923661 186.77725049 62.13854457 190.03482819 51.36516762 C190.74268988 49.02417553 191.45075618 46.68324541 192.15887451 44.34233093 C194.1842389 37.64630144 196.20884524 30.95004864 198.22934723 24.25255013 C199.04832471 21.53906797 199.86873514 18.82602059 200.68951416 16.11308289 C201.25213062 14.25167715 201.81285623 12.38970022 202.37353516 10.52770996 C202.70691895 9.42648804 203.04030273 8.32526611 203.38378906 7.19067383 C203.673526 6.23075027 203.96326294 5.27082672 204.26177979 4.28181458 C205 2 205 2 206 0 C235.37 0 264.74 0 295 0 C294.31693173 4.78147787 293.77831849 8.14450033 292.21606445 12.50219727 C291.66067741 14.06690514 291.66067741 14.06690514 291.09407043 15.66322327 C290.68791 16.78627365 290.28174957 17.90932404 289.86328125 19.06640625 C289.20815878 20.90357684 288.55303632 22.74074743 287.89791393 24.57791805 C287.19512623 26.54464082 286.48905455 28.51015554 285.78198242 30.4753418 C284.28754935 34.62901234 282.80226258 38.78591736 281.31835938 42.94335938 C279.50633373 48.01834461 277.692243 53.09258178 275.87542534 58.1658535 C272.70832085 67.01035041 269.55732363 75.86046154 266.41796875 84.71484375 C266.19353907 85.34781435 265.96910938 85.98078495 265.7378788 86.63293648 C264.60961535 89.81533069 263.48166226 92.9978348 262.35385132 96.1803894 C260.30061708 101.97390223 258.24459426 107.76642564 256.18882179 113.55903816 C255.04243746 116.7893196 253.89622742 120.01966288 252.75 123.25 C252.2916675 124.54166696 251.83333417 125.83333363 251.375 127.125 C251.0346875 128.0840625 251.0346875 128.0840625 250.6875 129.0625 C248.62500057 134.87499839 248.62500057 134.87499839 247.93748474 136.81254292 C247.4792022 138.10406651 247.02091973 139.39559012 246.56263733 140.68711376 C245.41602751 143.91846972 244.26941642 147.14982522 243.12280273 150.38117981 C241.06957356 156.16753664 239.01635269 161.95389641 236.96318054 167.74027348 C235.82962675 170.93492417 234.69606535 174.12957216 233.5625 177.32421875 C233.33756866 177.95812719 233.11263733 178.59203564 232.88088989 179.24515343 C229.74261019 188.08950372 226.60397367 196.93372733 223.46508789 205.77786255 C221.70453431 210.73840935 219.94407663 215.69899019 218.18363953 220.65957832 C216.75867671 224.67483366 215.33358914 228.69004469 213.90840149 232.70522022 C212.81381618 235.7891153 211.71942462 238.87307914 210.625 241.95703125 C210.244646 243.02846878 209.86429199 244.09990631 209.47241211 245.20381165 C206.30427039 254.13215222 203.15307839 263.06627788 200 272 C165.35 272 130.7 272 95 272 C92.195 264.018125 89.39 256.03625 86.5 247.8125 C78.79568125 225.90633168 71.04325637 204.01780568 63.25317383 182.14199829 C58.85098272 169.77711875 54.46378751 157.40691339 50.07551193 145.0370903 C49.14121327 142.40350623 48.20683448 139.76995059 47.27245426 137.13639545 C43.94183535 127.749026 40.61154896 118.36153859 37.28128052 108.9740448 C36.80237805 107.62409716 36.3234746 106.27414986 35.84457016 104.92420292 C35.36641081 103.57635612 34.88825376 102.2285085 34.41009903 100.88066006 C33.22098881 97.52876737 32.03180323 94.17690145 30.84246826 90.8250885 C30.37056197 89.49512836 29.89865848 88.16516722 29.42675781 86.83520508 C29.19424191 86.17990342 28.961726 85.52460176 28.72216415 84.84944248 C27.33384675 80.93640292 25.94633854 77.02307755 24.5594902 73.1095171 C20.08380326 60.47995581 15.59503261 47.8553902 11.0625 35.24609375 C9.93720637 32.10853563 8.81236457 28.97081593 7.68768311 25.83303833 C6.65267387 22.95203179 5.61089125 20.07353645 4.56884766 17.19506836 C3.95440439 15.48173291 3.34028785 13.76828024 2.7265625 12.0546875 C2.44651367 11.28809311 2.16646484 10.52149872 1.87792969 9.73167419 C0.63972316 6.25268162 0 3.74028342 0 0 Z " fill="#FFFFFF" transform="translate(1358,374)"/>
<path d="M0 0 C27.72 0 55.44 0 84 0 C84 21.78 84 43.56 84 66 C102.15 66 120.3 66 139 66 C139 89.1 139 112.2 139 136 C120.85 136 102.7 136 84 136 C84.11991613 155.68659844 84.11991613 155.68659844 84.2578125 175.37304688 C84.31806358 183.40516745 84.37652176 191.43726225 84.421875 199.46948242 C84.45881503 205.94697515 84.50519889 212.42433839 84.55806351 218.90172005 C84.57656111 221.36995224 84.59168607 223.83821215 84.60334396 226.30648613 C84.6202856 229.7701321 84.6493402 233.23348449 84.68115234 236.69702148 C84.68331253 237.71194672 84.68547272 238.72687195 84.68769836 239.77255249 C84.76980355 246.79460166 85.02610108 253.75716606 88.75 259.875 C95.09418228 265.86672771 102.27429784 266.13940656 110.58203125 266.31640625 C111.66550842 266.34438293 111.66550842 266.34438293 112.77087402 266.3729248 C115.45129981 266.44086737 118.13191312 266.50124187 120.8125 266.5625 C126.814375 266.706875 132.81625 266.85125 139 267 C139 290.43 139 313.86 139 338 C129.285625 338.061875 119.57125 338.12375 109.5625 338.1875 C106.53263916 338.21481201 103.50277832 338.24212402 100.38110352 338.27026367 C72.71030792 338.41661249 48.02016849 335.19779962 26 317 C25.17113281 316.37351562 24.34226562 315.74703125 23.48828125 315.1015625 C7.86431287 301.90580898 2.16253682 278.93894727 0.45631409 259.42047119 C-0.0370816 253.23677573 -0.13473895 247.09814887 -0.11352539 240.89746094 C-0.11367142 239.75454086 -0.11381744 238.61162079 -0.1139679 237.43406677 C-0.11327782 233.70081607 -0.10552826 229.96761686 -0.09765625 226.234375 C-0.09578885 223.62835721 -0.09436647 221.02233907 -0.09336853 218.4163208 C-0.09027771 212.28620781 -0.08209508 206.15611295 -0.07201904 200.02600789 C-0.0607875 193.03916617 -0.05532982 186.05232351 -0.05032361 179.06547499 C-0.03991024 164.71030537 -0.0215932 150.35515705 0 136 C-10.89 136 -21.78 136 -33 136 C-33 112.9 -33 89.8 -33 66 C-22.11 66 -11.22 66 0 66 C0 44.22 0 22.44 0 0 Z " fill="#FFFFFF" transform="translate(2747,308)"/>
<path d="M0 0 C0 29.04 0 58.08 0 88 C-13.365 88.495 -13.365 88.495 -27 89 C-43.36458858 90.34645349 -57.87518419 92.48595034 -70.75 103.3125 C-79.68807733 113.98853681 -84.07022262 126.03257178 -84.15821838 140.03646851 C-84.1680072 141.22269806 -84.17779602 142.40892761 -84.18788147 143.63110352 C-84.19363693 144.91863525 -84.1993924 146.20616699 -84.20532227 147.53271484 C-84.21491049 148.91289558 -84.22492111 150.29307343 -84.23532104 151.67324829 C-84.26227393 155.40829258 -84.28333532 159.14334938 -84.30332303 162.87843657 C-84.32524215 166.78621906 -84.35260176 170.69396341 -84.37937927 174.60171509 C-84.42922622 181.99634834 -84.47419461 189.39100285 -84.51740164 196.78567755 C-84.57609175 206.78181678 -84.6423355 216.77790579 -84.70815182 226.77400017 C-84.81160134 242.51596623 -84.90497365 258.25797562 -85 274 C-112.72 274 -140.44 274 -169 274 C-169 184.24 -169 94.48 -169 2 C-141.28 2 -113.56 2 -85 2 C-84.505 22.295 -84.505 22.295 -84 43 C-80.04 38.38 -76.08 33.76 -72 29 C-51.44726425 8.7141829 -28.95054221 0 0 0 Z " fill="#FFFFFF" transform="translate(3400,372)"/>
<path d="M0 0 C28.05 0 56.1 0 85 0 C85 112.86 85 225.72 85 342 C56.95 342 28.9 342 0 342 C0 229.14 0 116.28 0 0 Z " fill="#FFFFFF" transform="translate(3541,304)"/>
<path d="M0 0 C3.43029875 1.30226633 5.7362919 4.04599329 8.28011513 6.60275269 C8.89678047 7.21094849 9.51344582 7.81914429 10.14879799 8.44577026 C12.18508304 10.45865283 14.20997184 12.48255256 16.23397255 14.50778198 C17.64283134 15.90954283 19.05198966 17.3110027 20.46143532 18.71217346 C23.41288863 21.65017563 26.3583287 24.59405695 29.30013466 27.54171753 C33.07767161 31.3251607 36.87316093 35.09001164 40.67378139 38.85024738 C43.58795373 41.7386243 46.49063367 44.63833769 49.3901062 47.54146385 C50.78526699 48.93492674 52.18443533 50.32438879 53.58758926 51.70980263 C55.54406299 53.64424202 57.48412542 55.59377285 59.42074013 57.54806519 C60.00714775 58.12120956 60.59355537 58.69435394 61.19773293 59.28486633 C62.78238869 60.90348816 62.78238869 60.90348816 65.0269413 63.76950073 C64.72295476 67.09251443 63.32645494 68.90829074 61.13453579 71.33831406 C60.51415269 72.03250718 59.89376958 72.7267003 59.25458699 73.44192958 C58.22173079 74.57422775 58.22173079 74.57422775 57.1680088 75.72940063 C56.4403068 76.53727815 55.7126048 77.34515566 54.96285123 78.17751431 C52.50861436 80.89524647 50.04251036 83.60186966 47.575037 86.30758667 C46.71373177 87.25647829 45.85242653 88.20536991 44.96502113 89.18301582 C28.33131656 107.5023738 11.3698999 125.50960704 -5.72949712 143.39427762 C-8.54619755 146.34049284 -11.36057361 149.28891873 -14.17349815 152.23873901 C-14.73322961 152.82562812 -15.29296108 153.41251722 -15.8696541 154.01719084 C-24.25321643 162.81873274 -32.45062435 171.76953809 -40.56217003 180.82174683 C-53.10970676 194.80438026 -65.91246632 208.50519102 -79.17227745 221.81637573 C-79.70777865 222.35505586 -80.24327985 222.893736 -80.79500836 223.44873977 C-110.3313589 253.08023636 -135.73141586 271.19257241 -179.51964378 271.46072388 C-200.86774744 271.1582435 -222.01586606 268.76549493 -242.9730587 264.76950073 C-238.54969202 259.47535489 -233.88691077 254.5434846 -229.00043297 249.67662048 C-227.82280539 248.49771127 -227.82280539 248.49771127 -226.62138736 247.29498571 C-224.00286019 244.67481778 -221.38078668 242.05822856 -218.75870323 239.44161987 C-216.87585353 237.55905238 -214.99320328 235.67628739 -213.11079979 233.79327393 C-209.06425166 229.74620282 -205.01588453 225.70095883 -200.9662571 221.65696907 C-195.11126185 215.8101195 -189.25904754 209.96049288 -183.40749656 204.11019652 C-173.91242687 194.61731254 -164.41512869 185.12666137 -154.91641808 175.63742065 C-145.69226109 166.42245025 -136.46916062 157.20642451 -127.24747276 147.98898315 C-126.67853295 147.42030606 -126.10959313 146.85162897 -125.52341272 146.26571924 C-122.66906169 143.4126733 -119.81473136 140.55960667 -116.96041131 137.70652974 C-93.30116734 114.05764338 -69.63830218 90.41238342 -45.9730587 66.76950073 C-47.8696566 62.74423835 -50.29489895 60.47368969 -53.60977745 57.55075073 C-54.9730587 55.76950073 -54.9730587 55.76950073 -54.85973167 53.98588562 C-53.58726591 50.80514821 -51.55746086 48.95627097 -49.14957237 46.52609253 C-48.64866585 46.01671646 -48.14775932 45.50734039 -47.63167381 44.98252869 C-45.97588775 43.30336779 -44.30915349 41.63561607 -42.64102745 39.96871948 C-41.48588986 38.80648255 -40.33105281 37.64394684 -39.17650414 36.48112488 C-36.75635725 34.04753345 -34.33035354 31.61996152 -31.90054893 29.1960144 C-28.78295376 26.08432666 -25.68402395 22.95474988 -22.58964634 19.81999493 C-20.21082385 17.41536973 -17.82067387 15.02226108 -15.42709351 12.63233376 C-14.27924407 11.48278728 -13.13539116 10.32923609 -11.99560165 9.17169762 C-10.40358693 7.55763197 -8.79660065 5.96013754 -7.18472862 4.36593628 C-6.27285286 3.45200607 -5.3609771 2.53807587 -4.42146873 1.59645081 C-1.9730587 -0.23049927 -1.9730587 -0.23049927 0 0 Z " fill="#D521A3" transform="translate(402.9730587005615,464.2304992675781)"/>
</svg>
